<?xml version="1.0" encoding="utf-8"?>
<!-- Generator: Adobe Illustrator 27.1.0, SVG Export Plug-In . SVG Version: 6.00 Build 0)  -->
<svg version="1.1" xmlns="http://www.w3.org/2000/svg" xmlns:xlink="http://www.w3.org/1999/xlink" x="0px" y="0px"
	 viewBox="0 0 171.9 156" style="enable-background:new 0 0 171.9 156;" xml:space="preserve">
<style type="text/css">
	.st0{opacity:0.43;fill:#CEE5ED;}
	.st1{fill:#AAC6CE;}
	.st2{fill:#85B0BA;}
	.st3{fill:#3E8CCC;}
	.st4{fill:#CEE5ED;}
	.st5{fill:none;stroke:#3E8CCC;stroke-miterlimit:10;}
	.st6{fill:#1E394C;}
	.st7{fill:#62BDF4;}
	.st8{fill:#34648C;}
	.st9{fill:#67B8EF;}
	.st10{opacity:0.25;fill:#34648C;}
	.st11{fill:#F2BF75;}
	.st12{fill:#0F2A3F;}
	.st13{fill:#EA9249;}
	.st14{fill:#80A9B2;}
	.st15{opacity:0.67;fill:#EA9249;}
	.st16{opacity:0.29;fill:#34648C;}
	.st17{opacity:0.48;fill:#1E394C;}
	.st18{fill:#2173AA;}
	.st19{fill:#1A3651;}
</style>
<g id="BACKGROUND">
</g>
<g id="OBJECTS">
	<ellipse class="st0" cx="85.9" cy="152.6" rx="85.9" ry="3.4"/>
	<g>
		
			<rect x="114" y="111.8" transform="matrix(-1 -4.490331e-11 4.490331e-11 -1 231.8458 261.025)" class="st1" width="3.9" height="37.4"/>
		
			<rect x="114" y="111.8" transform="matrix(-1 -4.467061e-11 4.467061e-11 -1 231.8458 228.8971)" class="st2" width="3.9" height="5.3"/>
		<path class="st1" d="M99,149.2h32.6c1.3,0,2.3,1.1,2.3,2.3v1.1H96.7v-1.1C96.7,150.3,97.7,149.2,99,149.2z"/>
		<path class="st1" d="M125.2,111.9H98.1c9.9-3.5,6-36.9,4.2-49.5c-0.4-2.5,1.6-4.8,4.2-4.8l18,0c3.7,0,6.8,2.7,7.3,6.4
			c1.6,11.5,4.1,35.3-0.9,44.5C129.9,110.5,127.6,111.9,125.2,111.9z"/>
	</g>
	<g>
		<ellipse transform="matrix(0.2181 -0.9759 0.9759 0.2181 91.0825 151.6626)" class="st3" cx="140.2" cy="19" rx="19" ry="19"/>
		<circle class="st4" cx="140.2" cy="19" r="15.5"/>
		<path class="st5" d="M140.2,7.8"/>
		<g>
			<g>
				<path class="st3" d="M144.6,24.3c0.2,0,0.5-0.1,0.7-0.3c0.4-0.4,0.4-1,0-1.4l-4-4V8c0-0.5-0.4-1-1-1c-0.5,0-1,0.4-1,1v11
					c0,0.3,0.1,0.5,0.3,0.7l4.3,4.3C144.1,24.2,144.3,24.3,144.6,24.3z"/>
			</g>
			<path class="st6" d="M138.2,18.7c0-1.2,1-2.2,2.2-2.2c1.2,0,2.2,1,2.2,2.2c0,1.2-1,2.2-2.2,2.2C139.2,20.9,138.2,19.9,138.2,18.7
				z"/>
		</g>
	</g>
	<g>
		<path class="st7" d="M32.1,36.7h32.4c1.7,0,3,1.3,3,3v14.6c0,1.7-1.3,3-3,3h-2.3v3.5c0,0.5-0.6,0.7-0.9,0.4l-4.4-4H32.1
			c-1.7,0-3-1.3-3-3V39.7C29.1,38,30.4,36.7,32.1,36.7z"/>
		<g>
			<circle class="st8" cx="56.1" cy="47.2" r="1.3"/>
			<circle class="st8" cx="48" cy="47.2" r="1.3"/>
			<circle class="st8" cx="40.4" cy="47.2" r="1.3"/>
		</g>
	</g>
	<g>
		<g>
			<path class="st9" d="M138.2,75.9c0-3.6,2.5-7.2,5.6-7.2c3.1,0,5.6,3.6,5.6,7.2c0,3.6-2.5,6.5-5.6,6.5
				C140.7,82.4,138.2,79.5,138.2,75.9z"/>
			<path class="st10" d="M143.8,68.7c0.5,0,1,0.1,1.4,0.3c-2.4,0.9-4.2,3.9-4.2,6.9c0,3,1.8,5.5,4.2,6.2c-0.5,0.1-0.9,0.2-1.4,0.2
				c-3.1,0-5.6-2.9-5.6-6.5C138.2,72.3,140.7,68.7,143.8,68.7z"/>
		</g>
		<g>
			<path class="st4" d="M150.2,80.1l-1,9.1c-0.1,1.1-1.1,2-2.2,2h-5.8c-1.2,0-2.1-0.9-2.2-2l-1-9.1c-0.1-0.5,0.3-0.9,0.8-0.9h10.7
				C149.9,79.2,150.3,79.6,150.2,80.1z"/>
			<path class="st1" d="M149.4,80.6h-10.7c-0.3,0-0.6,0.2-0.7,0.5l-0.1-0.9c-0.1-0.5,0.3-0.9,0.8-0.9h10.7c0.5,0,0.9,0.4,0.8,0.9
				l-0.1,0.9C150,80.7,149.7,80.6,149.4,80.6z"/>
			<path class="st1" d="M138.7,79.2h3.7c-0.5,0-0.9,0.4-0.8,0.9l1,9.1c0.1,1.1,1.1,2,2.2,2h-3.7c-1.2,0-2.1-0.9-2.2-2l-1-9.1
				C137.8,79.6,138.2,79.2,138.7,79.2z"/>
		</g>
	</g>
	<g>
		<g>
			<g>
				<polygon class="st11" points="92,143.7 92.4,146.3 90.4,148.9 85.3,146.4 84.7,144 91.1,143 				"/>
				<path class="st6" d="M87.9,152.2l-0.5-0.7c-0.1-0.1-0.3-0.1-0.4,0l-0.5,0.6c-0.2,0.3-0.5,0.4-0.9,0.4l-11.9-0.2
					c-0.2-0.2-0.3-0.6,0-0.9c1.7-1.8,11.1-4.8,11.6-5c0.5-0.3,3.3,2,7.1-0.1c0,0,0.6,3,0.7,4.9c0,0.8-0.6,1.4-1.4,1.4l-3-0.1
					C88.4,152.6,88.1,152.4,87.9,152.2z"/>
				<path class="st6" d="M113.8,99c0,0,4.9,5.4-4.1,11.4c-6.3,4.1-11.3,2.9-15.3,5.4c-0.9,0.6-1.6,1.5-1.7,2.6l-0.2,25.4L92,144
					c-2.4,1.2-5.2,1.2-7.6,0.1l0,0l-3.6-29c-0.1-2,1-3.7,2.2-5.3c6.9-8.8,19.1-11.7,22.2-12.2C109.2,96.9,113.8,99,113.8,99z"/>
			</g>
			<g>
				<polygon class="st11" points="111.6,143.7 112,146.3 110.1,148.9 104.9,146.5 104.3,144.1 110.7,143 				"/>
				<path class="st6" d="M107.6,152.2l-0.5-0.6c-0.1-0.1-0.3-0.1-0.4,0l-0.5,0.6c-0.2,0.3-0.5,0.4-0.9,0.4l-11.9,0
					c-0.2-0.2-0.3-0.6,0-0.9c1.7-1.8,11-4.9,11.5-5.2c0.5-0.3,3.4,1.9,7.1-0.2c0,0,0.7,3,0.8,4.9c0,0.8-0.6,1.4-1.3,1.4l-3,0
					C108.1,152.6,107.8,152.5,107.6,152.2z"/>
				<path class="st6" d="M128.7,94.3c0,0,6,6.6-2.7,14.2c-6,5.3-11.5,3-15.3,6.2c-0.9,0.8-1.5,1.8-1.4,2.9l2.7,25.9l-0.2,0.1
					c-2.4,1.5-5.4,1.7-8,0.5l0,0l-6.7-27.3c-0.4-2.1,0.5-4,1.5-5.8c6-10.2,15.4-16.3,18.6-17.3C121.4,92.5,128.7,94.3,128.7,94.3z"
					/>
			</g>
			<path class="st12" d="M95.8,115c0.5-0.2,0.9-0.3,1.4-0.5c0.3-1.2,0.8-2.4,1.5-3.5c3-5.1,6.8-9.1,10.2-12
				c-2.2-0.4-3.3-0.8-3.9-1.4c-1.2,0.2-3.6,0.7-6.5,1.8C95.7,104.2,95.7,112.2,95.8,115z"/>
		</g>
		<path class="st4" d="M112.7,59.1c0,0,8.6-1.1,12.2,5.6c3.6,6.7,8.9,33,4.2,33.8c-2.1,0.4-7.6,1.7-13.7,1.3
			c-8.4-0.6-10.2-1.4-10.8-3l-5.3-24.5c-0.1-3.4,1.4-6.6,4.1-8.6C107.6,60.4,112.7,59.1,112.7,59.1z"/>
		<path class="st1" d="M99.3,70.1c0,0-0.1,14.7-4.7,15.6c-4.6,0.9-17,0.6-17,0.6V91H104L99.3,70.1z"/>
		<path class="st13" d="M105.7,63.4l-1-5.2l6.8-5.2l1.3,6.1C112.7,59.2,110.6,68.6,105.7,63.4z"/>
		<path class="st6" d="M97.1,48.3c0,0,3.5,1.7,8.7-1.4c0,0,1.2,2.2,4.7,4.1c0,0,1.8-3,2.8-0.8c0.3,0.7,0.5,1.3,0.5,1.9
			c3.3-4.2,1-9.7-2.1-12.7c-2.9-2.8-9.1-1.7-13-0.1c-4.1,1.7-4.9-1.2-4.9-1.2C88.6,45.3,97.1,48.3,97.1,48.3z"/>
		<path class="st11" d="M110.5,50.9c0,0,1.8-3,2.8-0.8c1.3,2.8-0.2,4.5-1.9,4.5c0,0-1.4,7.2-7.9,6.6c-6.6-0.5-7.5-11.1-6.4-13
			c0,0,3.5,1.7,8.7-1.4C105.8,46.8,107,49,110.5,50.9z"/>
		<g>
			<path class="st4" d="M53.5,67.7h27.4c1.4,0,2.5,1,2.8,2.3l3.7,17.9H54.1l-3.4-16.8C50.3,69.3,51.7,67.7,53.5,67.7z"/>
			<path class="st14" d="M54.3,87.8h45.2c0.8,0,1.4,0.6,1.4,1.4v0.3c0,0.8-0.6,1.4-1.4,1.4H54.3c-0.8,0-1.4-0.6-1.4-1.4v-0.3
				C52.9,88.5,53.5,87.8,54.3,87.8z"/>
			<path class="st1" d="M54.2,87.8h33.5c-0.7,0-1.4,0.6-1.4,1.4v0.4c0,0.7,0.6,1.4,1.4,1.4H54.2c-0.7,0-1.4-0.6-1.4-1.4v-0.4
				C52.9,88.4,53.5,87.8,54.2,87.8z"/>
		</g>
		<path class="st4" d="M98.1,86.9c5.3-0.6,20.3-2.2,22.9-2.4c3.2-0.3-3.8-13.4-4.6-17.9c-0.8-4.5,2.6-4.6,2.6-4.6
			c1.9-0.2,4,0,5.8,2.7c3.7,5.5,7.7,21.7,5.6,25.7c-0.3,0.5-0.7,0.8-1.3,0.8H98.1V86.9z"/>
		<path class="st1" d="M98.1,86.9c0,0,19.3-1.3,23.5-1.9c3.2-0.4-3.5-13.8-4.3-18.3c-0.8-4.5,2.7-4.3,2.7-4.3c0.9-0.1,2.1,0,3,0.3
			c-1.3-0.8-2.6-0.9-3.9-0.8c0,0-3.4,0.2-2.6,4.6c0.8,4.5,6.8,17.3,4.8,17.8C118.7,85,103.5,86.3,98.1,86.9z"/>
		<path class="st11" d="M98.1,91.2h-7.2c-0.5,0-0.9-0.6-0.6-1.1c0.7-1,1.7-2.5,2.5-2.7c0.5-0.1,4,0,5.2,0.1V91.2z"/>
		<path class="st15" d="M97.1,48.3c0,0,0.6,0.3,1.6,0.4c0.1,0.5,0.2,1.4,0.3,2.3c0.1,1.3-0.5,5.2-0.1,5.2c0.4,0,1.2,0,1.2,0
			s0.6,5.7,6.3,4.8c0.1,0,0.1,0,0.1,0c-0.9,0.3-1.9,0.5-3,0.4C96.9,60.8,96,50.2,97.1,48.3z"/>
	</g>
	<g>
		<g>
			<path class="st9" d="M14.6,130.6c0,0-9-4.5-6.6-11.3c2.5-6.8,4-7.1-0.7-10.9C2.6,104.6-4.2,95,4.4,94.2
				c8.6-0.7,8.2,10.7,15.3,12.3C26.9,108.1,30.8,138.1,14.6,130.6z"/>
			<path class="st10" d="M21.7,131.3c-1.7,0.8-4.1,0.7-7.1-0.7c0,0-9-4.5-6.6-11.3s4-7.1-0.7-10.9C2.6,104.6-4.2,95,4.4,94.2
				c0.8-0.1,1.6,0,2.3,0.1c-2.4,1-4.8,3-1.7,6.7c5.2,6.1,8,8.3,7.4,12.3C11.7,117.2,12,126,21.7,131.3z"/>
		</g>
		<g>
			<path class="st9" d="M29.9,130.4c0,0,8-0.3,7.5-6c-0.4-5.7-0.7-5.9,4.3-7.7c8.8-3.2,1.8-20.1-5.4-9.5c-5,7.4-7.2,5.7-10.4,6.3
				C22.7,114.1,15.6,132.9,29.9,130.4z"/>
			<path class="st16" d="M26,113.5c3.3-0.6,5.4,1.1,10.4-6.3c3.8-5.6,7.5-3.6,8.9,0c-2.1-0.6-5.3-1-5.7,2.4
				c-0.5,4.5-11,11.8-10.8,20.9c-0.1,0-0.3,0-0.4,0c-1.5-4-3.5-9.2-5.2-13.7C24,115,25.1,113.6,26,113.5z"/>
		</g>
		<g>
			<path class="st8" d="M28,130.1c0,0,9.9-9.7,6.5-11.3c-3.4-1.6-10,3.7-6.3-2.1s8-14.7,2.9-13.3c-5.1,1.4-5.5,3-4.8-3.7
				c0.8-8.7-4-13.1-8.6-10.3s3.9,21.9,0.8,19.9c-3.1-2.1-5.7-3.8-6.4-1.3c-0.7,2.5,9,12.3,5.4,10.6c-4.4-2.1-5.1,1.6-3.7,3.9
				C15.2,124.8,21.1,138.4,28,130.1z"/>
			<path class="st17" d="M13.8,122.5c-1.4-2.3-0.8-6,3.7-3.9c3.6,1.7-6.1-8.1-5.4-10.6c0.7-2.5,3.3-0.8,6.4,1.3
				c3.1,2.1-5.3-17-0.8-19.9c2.1-1.3,4.3-1,5.9,0.5c-2.4,0.6-4.2,2.5-2.9,7.6c2.8,10.9,4.5,19.9-0.6,17.2c-4.8-2.5,5.5,9,5.6,17.3
				C19.9,135.5,15.1,124.6,13.8,122.5z"/>
		</g>
		<g>
			<path class="st4" d="M34.9,131.3L33,148.6c-0.2,2.2-2.1,3.8-4.2,3.8h-11c-2.2,0-4-1.6-4.2-3.8l-1.9-17.3
				c-0.1-0.9,0.6-1.8,1.6-1.8h20.2C34.3,129.5,35,130.3,34.9,131.3z"/>
			<path class="st1" d="M13.1,129.5h7c-0.9,0-1.7,0.8-1.6,1.8l1.9,17.3c0.2,2.2,2.1,3.8,4.2,3.8h-7c-2.2,0-4-1.6-4.2-3.8l-1.9-17.3
				C11.5,130.3,12.2,129.5,13.1,129.5z"/>
		</g>
	</g>
	<g>
		<g>
			<path class="st3" d="M34.7,91.2h118c1.4,0,2.5,1.1,2.5,2.5v0.6c0,1.4-1.1,2.5-2.5,2.5h-118c-1.4,0-2.5-1.1-2.5-2.5v-0.6
				C32.2,92.3,33.3,91.2,34.7,91.2z"/>
			<path class="st18" d="M34.6,91.2h118.2c1.3,0,2.4,1.1,2.4,2.4v0.8c0,0.3-0.1,0.5-0.1,0.7c-0.3-1-1.2-1.7-2.3-1.7H34.6
				c-1.1,0-2,0.7-2.3,1.7c-0.1-0.2-0.1-0.5-0.1-0.7v-0.8C32.2,92.2,33.3,91.2,34.6,91.2z"/>
		</g>
		<g>
			<g>
				<g>
					<polygon class="st8" points="115.4,152.4 119.4,152.4 146.9,96.8 142.9,96.8 					"/>
				</g>
			</g>
			<g>
				<g>
					<polygon class="st8" points="158.9,152.4 155,152.4 127.5,96.8 131.4,96.8 					"/>
				</g>
			</g>
			<g>
				<g>
					<polygon class="st8" points="30.3,152.4 34.3,152.4 61.8,96.8 57.8,96.8 					"/>
				</g>
			</g>
			<g>
				<g>
					<polygon class="st8" points="73.8,152.4 69.9,152.4 42.4,96.8 46.3,96.8 					"/>
				</g>
			</g>
			<g>
				<g>
					<polygon class="st19" points="141.8,99 142.9,96.8 146.9,96.8 145.8,99 					"/>
				</g>
			</g>
			<g>
				<g>
					<polygon class="st19" points="128.6,99 127.5,96.8 131.4,96.8 132.5,99 					"/>
				</g>
			</g>
			<g>
				<g>
					<polygon class="st19" points="56.7,99 57.8,96.8 61.8,96.8 60.7,99 					"/>
				</g>
			</g>
			<g>
				<g>
					<polygon class="st19" points="43.5,99 42.4,96.8 46.3,96.8 47.4,99 					"/>
				</g>
			</g>
		</g>
	</g>
</g>
<g id="DESIGNED_BY_FREEPIK">
</g>
</svg>
